<?xml version="1.0" encoding="UTF-8" standalone="no"?>
<!-- Created with Inkscape (http://www.inkscape.org/) -->
<svg width="1in" height="1in" viewBox="0 0 25.4 25.399999" version="1.1" id="svg1" xmlns="http://www.w3.org/2000/svg" xmlns:svg="http://www.w3.org/2000/svg">
  <defs id="defs1"/>
  <g id="layer1">
    <path style="font-size:2.38313px;line-height:1.25;font-family:'URW Bookman';-inkscape-font-specification:'URW Bookman';letter-spacing:0.893676px;stroke-width:0.148945" d="m 2.063675,7.1707588 -0.031048,0.067036 0.083766,0.091324 c -0.1455898,0.087522 -0.2581056,0.2113739 -0.3272129,0.360583 -0.09014,0.1946206 -0.094784,0.4314659 -0.012997,0.6348046 0.081468,0.1926857 0.2310636,0.3460149 0.4364964,0.4411627 0.44114,0.2043175 0.9180628,0.036511 1.1153694,-0.3894915 0.087135,-0.1881332 0.1014986,-0.3495659 0.050032,-0.573004 l 0.1812589,-9.1e-5 0.047073,-0.1016352 -0.3892412,-0.1802802 c -0.1828068,-0.087295 -0.2107138,-0.1291097 -0.1727684,-0.2507304 l 0.011541,-0.041929 -0.067036,-0.031048 -0.2734248,0.5903491 0.064874,0.030047 c 0.09574,-0.1500058 0.1695134,-0.1788688 0.3035854,-0.1167723 0.080011,0.037057 0.138192,0.092894 0.1755455,0.1653478 0.052445,0.1135856 0.044888,0.2886758 -0.021215,0.4313976 -0.1442241,0.3113929 -0.5030316,0.3999623 -0.8922728,0.2196822 -0.4043783,-0.187291 -0.5812213,-0.5029405 -0.4470128,-0.792709 0.054084,-0.1167723 0.1515765,-0.2081871 0.2966428,-0.2775676 0.0936,-0.043317 0.184514,-0.069494 0.3733073,-0.1028644 l 0.014272,-0.09319 z m 1.7329309,-2.3790664 0.056056,-0.05562 c 0.090654,-0.085693 0.1455431,-0.076934 0.3003584,0.049995 l 0.48357,0.4061891 c 0.1970776,0.1655412 0.2559822,0.2399183 0.2735742,0.3449521 0.018176,0.111749 -0.03423,0.2482427 -0.1476562,0.3832773 -0.1256887,0.149633 -0.2651006,0.219268 -0.3907184,0.1946716 -0.087808,-0.017736 -0.1663472,-0.065033 -0.3324033,-0.2045168 l -0.4872195,-0.4092547 c -0.1517498,-0.130579 -0.1698522,-0.1831323 -0.1010959,-0.2872183 l 0.051239,-0.072116 -0.056569,-0.047517 -0.4475743,0.5328394 0.056569,0.047516 0.043794,-0.041021 c 0.090654,-0.085692 0.1455431,-0.076934 0.3003585,0.049995 l 0.6113054,0.5134843 c 0.1532826,0.1287542 0.2706524,0.1557595 0.4451001,0.099992 0.1350328,-0.04219 0.2445913,-0.1244524 0.3718128,-0.2759102 0.1762707,-0.2098511 0.2403549,-0.3676584 0.2138572,-0.5361942 -0.016059,-0.1068586 -0.070658,-0.1900677 -0.1929186,-0.2927645 l -0.6076558,-0.5104187 c -0.1517498,-0.1305791 -0.1698522,-0.1831324 -0.1010959,-0.2872183 l 0.032845,-0.050218 -0.056569,-0.047516 -0.3755333,0.4470741 z m 2.0323147,-1.9053537 -0.1802685,0.1289326 0.2779904,1.0932775 c 0.1071988,0.4243483 0.1080715,0.4911128 -0.00378,0.6091986 l -0.018549,0.019127 0.042978,0.06009 0.5194833,-0.3715478 -0.042978,-0.06009 c -0.076713,0.040218 -0.115211,0.056032 -0.1462377,0.057714 -0.042939,0.00141 -0.087278,-0.019615 -0.1122324,-0.054506 -0.020796,-0.029076 -0.044659,-0.091116 -0.065762,-0.1697805 l -0.0572,-0.2110638 0.5000997,-0.357684 0.2757605,0.1807312 c 0.038523,0.025186 0.069845,0.052593 0.080936,0.0681 0.038818,0.054274 0.01946,0.109139 -0.069692,0.1934126 l -0.014121,0.013029 0.042978,0.060089 0.5446821,-0.3895706 -0.042978,-0.060089 c -0.1398578,0.07073 -0.1783684,0.066045 -0.3770823,-0.064314 z m 0.1829082,0.9972061 -0.2007525,-0.7353985 0.6368859,0.4234647 z m 2.9087543,-1.6703755 c 0.1304609,-0.072603 0.1834994,-0.1208391 0.234111,-0.2089495 0.061964,-0.1051808 0.071121,-0.2285117 0.02704,-0.3443294 -0.090705,-0.2383171 -0.3395777,-0.3093385 -0.6603035,-0.1872685 l -0.9064959,0.3450174 0.026279,0.069045 0.058225,-0.014511 c 0.1209039,-0.030717 0.1645853,0.00366 0.23802,0.1898978 l 0.3331495,0.8753143 c 0.06898,0.1879378 0.059207,0.2426555 -0.051524,0.3000999 l -0.053138,0.027874 0.026279,0.069045 0.6481334,-0.2466832 -0.026279,-0.069045 -0.082725,0.023836 c -0.1209039,0.030717 -0.1645853,-0.00366 -0.23802,-0.1898979 l -0.1500444,-0.3942255 0.3207258,-0.12207 0.7732485,0.5242169 0.3719529,-0.1415673 -0.026279,-0.069045 c -0.1167652,0.021492 -0.1904646,0.00874 -0.2934181,-0.054067 z m -0.6137445,0.1494476 -0.1839528,-0.483316 c -0.01865,-0.049 -0.011852,-0.084736 0.021457,-0.1178127 0.036068,-0.039227 0.1423451,-0.094976 0.2581627,-0.1390566 0.2850896,-0.1085067 0.4657813,-0.062533 0.5420751,0.1379204 0.037299,0.098 0.02889,0.2031965 -0.020342,0.288232 -0.045941,0.073583 -0.1184931,0.1241462 -0.2432198,0.1716179 z m 3.2265364,-1.58377089 -0.220377,0.0235405 -0.295953,1.08855252 c -0.115482,0.4221693 -0.147575,0.4807212 -0.303051,0.5284859 l -0.02556,0.00752 0.0078,0.073459 0.635066,-0.067837 -0.0078,-0.073459 c -0.08657,-0.00274 -0.12787,-0.00791 -0.155708,-0.021714 -0.03808,-0.0199 -0.06633,-0.060022 -0.07088,-0.1026758 -0.0038,-0.035545 0.006,-0.1012971 0.02629,-0.1801634 l 0.05406,-0.2118897 0.611369,-0.065306 0.151135,0.2930286 c 0.02114,0.040882 0.03493,0.080153 0.03695,0.099111 0.0071,0.06635 -0.03676,0.1045877 -0.155842,0.1340845 l -0.0187,0.00439 0.0078,0.073459 0.665871,-0.071128 -0.0078,-0.073459 c -0.156558,-0.00724 -0.187778,-0.030272 -0.296626,-0.2415371 z m -0.331454,0.95813029 0.187094,-0.73899147 0.346077,0.68203867 z m 2.71468,-0.78100655 0.662539,1.55833095 0.207443,0.030789 0.187881,-1.265874 c 0.03175,-0.197664 0.06703,-0.2406117 0.191711,-0.2365621 l 0.05998,0.00167 0.01085,-0.0730766 -0.582255,-0.0864185 -0.01085,0.0730765 0.08146,0.0193175 c 0.12048,0.0323372 0.141421,0.0860391 0.114739,0.2820455 l -0.1382,0.9311364 -0.579901,-1.38464709 -0.525679,-0.0780216 -0.01085,0.0730765 0.05788,0.0158187 c 0.12048,0.0323372 0.141771,0.0836818 0.114739,0.2820455 l -0.1375,0.9264218 c -0.03175,0.197664 -0.06703,0.2406117 -0.191711,0.2365621 l -0.05998,-0.00167 -0.01085,0.073077 0.582255,0.086418 0.01085,-0.073076 -0.08146,-0.019317 c -0.120481,-0.032337 -0.141421,-0.086039 -0.114739,-0.2820455 z m 4.001412,0.95260075 -1.277128,-0.5348432 -0.284194,0.3331259 0.05837,0.058034 c 0.227627,-0.1733747 0.419447,-0.211892 0.623876,-0.1262802 0.07254,0.030378 0.08751,0.062486 0.0599,0.1284306 l -0.422535,1.0089531 c -0.0786,0.1815263 -0.127433,0.2179185 -0.24634,0.1810403 l -0.08629,-0.028387 -0.02854,0.068143 0.677031,0.2835313 0.02854,-0.068143 -0.08297,-0.042496 c -0.108781,-0.061058 -0.118025,-0.1191864 -0.04162,-0.3016332 l 0.418853,-1.0001605 c 0.03222,-0.076935 0.05809,-0.089354 0.128431,-0.059897 0.195636,0.081929 0.315747,0.2639977 0.345511,0.5322457 l 0.0911,0.00456 z m 2.372943,1.5269193 -1.091451,-0.8126639 -0.04412,0.059256 0.04352,0.041315 c 0.09086,0.085477 0.08533,0.1407849 -0.03231,0.3027719 l -0.559329,0.7512087 c -0.121462,0.1591404 -0.172865,0.1802911 -0.280801,0.117752 l -0.05206,-0.029846 -0.04412,0.059256 1.114388,0.8297428 0.477092,-0.2776298 -0.03933,-0.070881 c -0.407603,0.1124741 -0.626966,0.079874 -0.911775,-0.1321871 -0.09557,-0.071161 -0.147755,-0.1367545 -0.151297,-0.1958441 -1.25e-4,-0.035747 0.015,-0.072023 0.06055,-0.1331904 l 0.300301,-0.4033207 0.141449,0.105319 c 0.148606,0.1076772 0.163825,0.2348841 0.05151,0.4216372 l 0.06499,0.04839 0.425546,-0.5715303 -0.06499,-0.04839 c -0.163349,0.1754917 -0.249563,0.1915207 -0.412038,0.070546 l -0.145272,-0.1081654 0.241949,-0.3249503 c 0.09109,-0.1223342 0.167826,-0.1216483 0.336036,0.0036 0.25996,0.1935592 0.352572,0.3724491 0.367603,0.7193826 l 0.07967,0.020694 z m 2.069605,2.192732 -0.854115,-1.0593273 -0.05751,0.046371 0.03183,0.050868 c 0.06665,0.1054461 0.0475,0.1576252 -0.106845,0.2851296 l -0.729099,0.5878587 c -0.157334,0.123794 -0.212388,0.1314479 -0.301302,0.043952 l -0.04296,-0.041893 -0.05751,0.046371 0.872065,1.0815899 0.531281,-0.1497859 -0.0204,-0.078453 c -0.422775,0.0072 -0.627062,-0.079114 -0.849939,-0.3555413 -0.07479,-0.092761 -0.108953,-0.1693004 -0.09764,-0.2274045 0.0088,-0.034647 0.0325,-0.066001 0.09187,-0.1138672 l 0.391451,-0.3156188 0.110691,0.1372858 c 0.117033,0.1413557 0.100025,0.2683358 -0.05534,0.4211526 l 0.05086,0.063077 0.554709,-0.4472513 -0.05086,-0.063077 c -0.201975,0.1291751 -0.289461,0.1231819 -0.416606,-0.034511 l -0.113683,-0.1409963 0.315386,-0.25429 c 0.118734,-0.095733 0.192875,-0.075918 0.324507,0.087341 0.203432,0.2523092 0.248472,0.448651 0.176448,0.7883588 l 0.07198,0.039921 z m -0.57637,2.0688509 0.294588,0.6644815 c 0.149709,0.3376873 0.277805,0.4972644 0.478312,0.5908508 0.191073,0.089948 0.439822,0.086549 0.653327,-0.00811 0.20697,-0.091757 0.384985,-0.2723437 0.452428,-0.46126 0.07497,-0.2131064 0.04542,-0.4502646 -0.100421,-0.7792374 l -0.294588,-0.6644815 -0.06754,0.029942 0.01761,0.057363 c 0.03715,0.1190838 0.0052,0.1645446 -0.176868,0.2478556 l -0.856201,0.3795838 c -0.18397,0.078954 -0.239133,0.072128 -0.30243,-0.035366 l -0.03068,-0.051568 z m 1.377402,-0.1153532 c 0.08279,-0.036703 0.12708,-0.048518 0.157559,-0.038569 0.04427,0.011656 0.108554,0.097857 0.157813,0.2089666 0.105278,0.2374704 0.105083,0.4487103 -9.4e-5,0.6230735 -0.07416,0.1267237 -0.203956,0.2337962 -0.365174,0.30527 -0.176469,0.078235 -0.362081,0.1005661 -0.512791,0.060501 -0.179258,-0.045657 -0.329387,-0.190252 -0.42694,-0.4102934 -0.04829,-0.1089314 -0.06828,-0.2069479 -0.05349,-0.2500049 0.01116,-0.033624 0.04312,-0.055613 0.130267,-0.094248 z" id="text1" transform="matrix(0.93787567,0,0,0.93718734,0.84291375,0.80689212)" aria-label="GUARANTEED"/>
    <path style="font-size:2.23426px;line-height:1.25;font-family:'URW Bookman';-inkscape-font-specification:'URW Bookman';letter-spacing:1.11713px;stroke-width:0.139641" d="m 3.2779585,17.223927 0.2941353,-0.155917 c 0.1668676,-0.08593 0.2189059,-0.08317 0.2851642,0.01321 l 0.032083,0.04621 0.061196,-0.03244 -0.2929979,-0.552738 -0.061196,0.03244 0.020238,0.05249 c 0.042569,0.10893 0.015645,0.153547 -0.1491295,0.243421 l -0.7758063,0.411243 c -0.1668676,0.08592 -0.2189059,0.08317 -0.2851642,-0.01321 l -0.032083,-0.04621 -0.061196,0.03244 0.292998,0.552738 0.061196,-0.03244 -0.020238,-0.05249 c -0.04257,-0.10893 -0.015645,-0.153547 0.1491294,-0.243421 l 0.3967865,-0.21033 0.3746188,0.706714 -0.3967865,0.210331 c -0.1668676,0.08592 -0.2189059,0.08317 -0.2851642,-0.01321 l -0.032083,-0.04621 -0.061196,0.03244 0.2929979,0.552737 0.061196,-0.03244 -0.020238,-0.05249 c -0.042569,-0.10893 -0.015645,-0.153547 0.1491294,-0.24342 l 0.7758064,-0.411244 c 0.1668676,-0.08592 0.2189059,-0.08317 0.2851642,0.01321 l 0.032083,0.04621 0.061196,-0.03244 -0.2929979,-0.552737 -0.061196,0.03244 0.020238,0.05249 c 0.042569,0.108929 0.015645,0.153547 -0.1491294,0.24342 l -0.2941353,0.155917 z m 2.329794,2.322908 0.044881,0.05888 c 0.068626,0.0947 0.053803,0.14466 -0.083034,0.273127 l -0.43645,0.400086 c -0.177874,0.163054 -0.2541843,0.208759 -0.3539647,0.212328 -0.1060938,0.0033 -0.2265994,-0.06204 -0.3383216,-0.183911 -0.1238002,-0.135053 -0.1715642,-0.273125 -0.1334098,-0.386905 0.027175,-0.07947 0.080701,-0.146721 0.2305767,-0.284109 l 0.4397439,-0.403105 c 0.1398562,-0.125173 0.1909129,-0.135605 0.2793023,-0.05902 l 0.060802,0.05641 0.051056,-0.0468 -0.4408496,-0.480918 -0.051056,0.0468 0.032803,0.0457 c 0.068626,0.0947 0.053803,0.144661 -0.083033,0.273127 l -0.5517387,0.50577 c -0.1383464,0.126819 -0.1777361,0.232639 -0.147128,0.401593 0.022784,0.130661 0.08592,0.242519 0.2112303,0.379219 0.1736222,0.189402 0.3125194,0.268182 0.472415,0.264064 0.1012901,-0.0019 0.1852865,-0.04255 0.2956342,-0.143703 l 0.5484447,-0.50275 c 0.1398562,-0.125173 0.1909129,-0.135604 0.2793022,-0.05902 l 0.042685,0.03665 0.051056,-0.0468 -0.3698909,-0.40351 z m 1.0455168,2.705316 1.1973248,-0.859303 -0.5512336,0.88327 c -0.1012594,0.158033 -0.1476627,0.181747 -0.2533224,0.131609 l -0.050934,-0.02389 -0.03667,0.05876 0.5307203,0.331213 0.03667,-0.05876 -0.043837,-0.03526 c -0.091465,-0.07288 -0.090552,-0.124987 0.00692,-0.285386 l 0.4648816,-0.744904 c 0.1012594,-0.158033 0.1476626,-0.181747 0.2533224,-0.131609 l 0.050935,0.02389 0.03667,-0.05876 -0.432158,-0.269702 -1.0053408,0.728919 0.2452734,-1.203264 -0.4416352,-0.275617 -0.03667,0.05876 0.043837,0.03526 c 0.091465,0.07288 0.090552,0.124987 -0.00692,0.285386 l -0.4648816,0.744904 c -0.1012594,0.158033 -0.1476627,0.181747 -0.2533224,0.131608 l -0.062307,-0.03098 -0.03667,0.05876 0.4795437,0.299275 0.03667,-0.05876 -0.062791,-0.04709 c -0.091465,-0.07288 -0.089369,-0.126882 0.00692,-0.285386 l 0.5654285,-0.906015 -0.3017133,1.449842 z m 3.2937997,-0.163055 -0.1986918,-0.0608 -0.6557834,0.829736 c -0.2549374,0.321535 -0.3041575,0.360213 -0.4558,0.344185 l -0.024809,-0.0029 -0.020267,0.06623 0.5725744,0.175209 0.020267,-0.06623 c -0.073644,-0.03422 -0.1073491,-0.05388 -0.126274,-0.07602 -0.025509,-0.03117 -0.035106,-0.07616 -0.023339,-0.114622 0.00981,-0.03205 0.042414,-0.08516 0.088972,-0.145677 l 0.1245909,-0.162816 0.5512096,0.168671 0.022488,0.308293 c 0.00319,0.04303 6.195e-4,0.08197 -0.00461,0.09906 -0.018305,0.05982 -0.070187,0.07666 -0.1837239,0.05827 l -0.017746,-0.0031 -0.020267,0.06623 0.6003481,0.183708 0.02027,-0.06623 c -0.132333,-0.06386 -0.150779,-0.09521 -0.166892,-0.317433 z m -0.6384008,0.70421 0.4332778,-0.568373 0.047428,0.71547 z m 2.3834238,-0.181831 0.748526,1.400004 0.19628,0.01147 0.06998,-1.197755 c 0.01318,-0.187228 0.04255,-0.230273 0.159314,-0.236879 l 0.05615,-0.0034 0.004,-0.06914 -0.550922,-0.03219 -0.004,0.06914 0.07768,0.01125 c 0.115202,0.02016 0.13923,0.06856 0.130644,0.253821 l -0.05147,0.88103 -0.656887,-1.244699 -0.497392,-0.02906 -0.004,0.06914 0.05537,0.0099 c 0.115202,0.02016 0.139361,0.06633 0.130645,0.253821 l -0.05121,0.876569 c -0.01318,0.187228 -0.04255,0.230274 -0.159315,0.23688 l -0.05615,0.0034 -0.004,0.06914 0.550923,0.03219 0.004,-0.06914 -0.07767,-0.01125 c -0.115202,-0.02016 -0.139231,-0.06856 -0.130645,-0.253821 z m 5.05867,0.652576 0.02882,-1.473485 0.377281,0.970404 c 0.06593,0.175733 0.05713,0.227096 -0.0463,0.281691 l -0.04963,0.02649 0.0251,0.06456 0.583075,-0.226693 -0.0251,-0.06455 -0.05449,0.01399 c -0.113143,0.02961 -0.154324,-0.0023 -0.224414,-0.17644 l -0.31818,-0.818388 c -0.06593,-0.175732 -0.05713,-0.227096 0.0463,-0.281691 l 0.04963,-0.02649 -0.0251,-0.06456 -0.47479,0.184593 -0.01827,1.241652 -0.816776,-0.916996 -0.485202,0.188641 0.0251,0.06455 0.05449,-0.01399 c 0.113143,-0.02961 0.154324,0.0023 0.224414,0.176441 l 0.31818,0.818387 c 0.06593,0.175733 0.05713,0.227096 -0.0463,0.281691 l -0.06213,0.03135 0.0251,0.06455 0.52685,-0.204833 -0.0251,-0.06455 -0.07531,0.02209 c -0.113143,0.02961 -0.155134,-0.0044 -0.224415,-0.17644 l -0.386997,-0.995393 0.980454,1.109858 z m 1.839858,-2.73549 -0.16759,0.122837 0.272531,1.021881 c 0.105123,0.396644 0.106669,0.459224 0.0031,0.571145 l -0.01718,0.01813 0.04095,0.05586 0.482947,-0.35398 -0.04095,-0.05586 c -0.07148,0.03854 -0.107396,0.05379 -0.136464,0.0557 -0.04024,0.0018 -0.08203,-0.01744 -0.105809,-0.04987 -0.01981,-0.02703 -0.04286,-0.08493 -0.0635,-0.158447 l -0.05592,-0.197241 0.464926,-0.340772 0.260488,0.166422 c 0.03639,0.02319 0.06605,0.04854 0.07662,0.06296 0.03698,0.05046 0.01943,0.102102 -0.06322,0.182078 l -0.01309,0.01237 0.04095,0.05586 0.506374,-0.37115 -0.04095,-0.05586 c -0.130341,0.06783 -0.166494,0.06386 -0.354204,-0.05618 z m 0.182346,0.932855 -0.196219,-0.687224 0.601678,0.390039 z m 2.113561,-0.901658 0.436164,-0.523578 c 0.221658,-0.266081 0.302585,-0.440023 0.297973,-0.647422 -0.0038,-0.197958 -0.109919,-0.405625 -0.278151,-0.54577 -0.163081,-0.135854 -0.388801,-0.210479 -0.5756,-0.188707 -0.210255,0.0255 -0.397323,0.148823 -0.61326,0.408037 l -0.436164,0.523578 0.05322,0.04433 0.0409,-0.03863 c 0.08466,-0.08068 0.136156,-0.07268 0.281785,0.04572 l 0.674643,0.562009 c 0.142768,0.12184 0.159941,0.171041 0.09588,0.268887 l -0.0306,0.04721 z m -0.669015,-1.109829 c -0.06523,-0.05434 -0.09356,-0.08666 -0.09785,-0.116413 -0.0086,-0.04205 0.03717,-0.131883 0.110099,-0.219433 0.155875,-0.187114 0.333508,-0.274681 0.523746,-0.258694 0.137314,0.0097 0.281217,0.07433 0.408249,0.180154 0.139049,0.115833 0.234906,0.26257 0.263824,0.405885 0.03607,0.169632 -0.02311,0.355872 -0.167546,0.529254 -0.0715,0.08583 -0.145584,0.143344 -0.187921,0.148787 -0.0329,0.0046 -0.06465,-0.01315 -0.13332,-0.07035 z m 1.553968,-3.002966 -0.551202,1.150542 0.06246,0.02992 0.03018,-0.04748 c 0.06229,-0.09899 0.11417,-0.103859 0.284391,-0.02479 l 0.791879,0.379374 c 0.168292,0.0831 0.197007,0.126588 0.1589,0.237158 l -0.01809,0.05327 0.06246,0.02993 0.562786,-1.174721 -0.341342,-0.388976 -0.05813,0.04895 c 0.176873,0.354777 0.186375,0.562478 0.04254,0.862707 -0.04827,0.100748 -0.09922,0.160568 -0.152951,0.174466 -0.03287,0.0066 -0.06897,-8.34e-4 -0.133447,-0.03173 l -0.425157,-0.203684 0.07143,-0.149107 c 0.07232,-0.156117 0.186616,-0.193023 0.378665,-0.123313 l 0.03282,-0.06851 -0.602473,-0.288633 -0.03282,0.06851 c 0.190877,0.118697 0.221148,0.195135 0.139095,0.366406 l -0.07336,0.153137 -0.342543,-0.164106 c -0.128958,-0.06178 -0.142143,-0.132511 -0.05719,-0.309827 0.131284,-0.274035 0.279202,-0.391454 0.595703,-0.467749 l 0.0047,-0.07703 z" id="text2" transform="translate(0.00390287)" aria-label="HUMAN MADE"/>
    <ellipse style="fill:#cbb122;fill-opacity:0;stroke:none;stroke-width:0.283636;stroke-linejoin:round;stroke-dasharray:none;stroke-dashoffset:0;stroke-opacity:0.348346" id="path2-2" cx="-6.6109533" cy="16.689892" rx="11.311766" ry="11.31459" transform="matrix(-0.91831392,0.39585294,0.39719069,0.91773611,0,0)"/>
    <ellipse style="fill:#cbb122;fill-opacity:0;stroke:#000000;stroke-width:0.259599;stroke-linejoin:round;stroke-dasharray:0.257612, 1.03045;stroke-dashoffset:0;stroke-opacity:0" id="path2" cx="-16.210625" cy="-7.6949635" rx="10.341168" ry="10.346331" transform="matrix(-0.94189916,-0.33589579,0.33500228,-0.94221732,0,0)"/>
    <ellipse style="fill:#cbb122;fill-opacity:0;stroke:#000000;stroke-width:0.181673;stroke-linejoin:round;stroke-dasharray:0.181673, 0.363347;stroke-dashoffset:0;stroke-opacity:1" id="path6" cx="12.700001" cy="12.699947" rx="11.974164" ry="11.974106"/>
    <path id="path4" style="fill:#000000;fill-opacity:1;stroke:none;stroke-width:1.02998;stroke-linejoin:round;stroke-dasharray:none;stroke-dashoffset:0;stroke-opacity:1" d="M 12.306191 5.3638888 A 8.8894129 8.8896751 90 0 0 11.040637 5.2734988 A 8.8894129 8.8896751 90 0 0 2.1509935 14.16251 A 8.8894129 8.8896751 90 0 0 4.2252959 19.854862 L 5.4722149 18.684365 L 4.3655109 18.54749 L 6.7061244 11.890035 L 7.8836427 8.5619399 L 9.1385568 8.7171456 L 9.6927328 14.721903 L 14.345753 10.353657 L 12.922628 10.177648 L 13.043817 9.200142 L 15.280303 9.4767469 L 17.144277 7.726458 A 8.8894129 8.8896751 90 0 0 12.306191 5.3638888 z M 17.856434 8.4711655 L 16.610091 9.6412131 L 17.92552 9.8039032 L 17.804332 10.781409 L 15.907345 10.546793 L 14.877307 18.855078 L 16.774294 19.089694 L 16.653105 20.0672 L 11.771402 19.463438 L 11.89259 18.485933 L 13.789578 18.720549 L 14.691942 11.442081 L 9.8131926 16.022462 L 10.111859 19.258189 L 8.9959236 19.120172 L 8.8244682 16.949951 L 4.9375163 20.599057 A 8.8894129 8.8896751 90 0 0 11.041156 23.052016 A 8.8894129 8.8896751 90 0 0 19.9308 14.163005 A 8.8894129 8.8896751 90 0 0 17.856434 8.4711655 z M 8.308782 10.273537 C 8.216063 10.564532 8.1184939 10.854637 8.0164765 11.144481 C 7.9237575 11.435476 7.8266378 11.726158 7.7246203 12.016001 L 6.6705465 15.146389 L 8.7070255 15.398258 L 8.449773 12.105687 L 8.3652063 11.187611 L 8.308782 10.273537 z M 6.3544797 16.099793 L 5.4863669 18.671014 L 8.007356 16.304218 L 6.3544797 16.099793 z " transform="matrix(0.99243903,-0.12273866,0.12303983,0.99240173,0,0)"/>
  </g>
</svg>
